<?xml version="1.0" standalone="no"?>
<!DOCTYPE svg PUBLIC "-//W3C//DTD SVG 20010904//EN"
 "http://www.w3.org/TR/2001/REC-SVG-20010904/DTD/svg10.dtd">
<svg version="1.0" xmlns="http://www.w3.org/2000/svg"
 width="1200.000000pt" height="1200.000000pt" viewBox="0 0 1200.000000 1200.000000"
 preserveAspectRatio="xMidYMid meet">
<metadata>
Created by potrace 1.11, written by Peter Selinger 2001-2013
</metadata>
<g transform="translate(0.000000,1200.000000) scale(0.100000,-0.100000)"
fill="#000000" stroke="none">
<path d="M5669 11996 c-2 -2 -48 -7 -101 -10 -54 -4 -114 -8 -135 -11 -21 -2
-78 -9 -128 -15 -49 -6 -110 -13 -135 -16 -25 -3 -70 -9 -100 -14 -30 -5 -73
-12 -95 -16 -22 -3 -58 -9 -80 -14 -22 -5 -56 -12 -75 -15 -208 -36 -747 -189
-915 -260 -16 -7 -84 -34 -150 -60 -292 -116 -637 -291 -915 -464 -155 -97
-402 -267 -479 -331 -10 -8 -33 -26 -52 -40 -258 -195 -645 -567 -885 -850
-112 -133 -206 -254 -310 -400 -113 -158 -173 -250 -291 -445 -7 -11 -15 -27
-20 -35 -4 -8 -20 -37 -36 -65 -107 -181 -270 -525 -356 -750 -23 -60 -47
-121 -52 -135 -18 -40 -123 -365 -135 -415 -1 -5 -20 -80 -42 -165 -22 -85
-43 -171 -46 -191 -3 -20 -8 -42 -10 -50 -3 -8 -8 -27 -11 -44 -16 -92 -35
-203 -39 -220 -2 -11 -7 -42 -10 -70 -4 -27 -8 -61 -11 -75 -6 -38 -13 -88
-21 -165 -3 -38 -8 -81 -10 -95 -19 -153 -27 -812 -11 -995 13 -161 38 -377
52 -455 2 -14 7 -45 11 -70 11 -78 12 -83 28 -165 17 -86 17 -84 40 -190 67
-311 215 -771 335 -1040 10 -22 31 -69 47 -105 46 -105 160 -332 214 -426 28
-48 50 -89 50 -91 0 -2 28 -49 62 -106 117 -195 302 -462 425 -617 71 -88 106
-132 118 -144 5 -6 23 -27 39 -46 97 -120 378 -411 532 -551 294 -269 738
-593 1044 -761 36 -20 94 -53 130 -73 104 -59 413 -207 560 -268 354 -146 730
-263 1075 -333 56 -11 74 -15 125 -24 30 -6 66 -12 80 -15 14 -3 43 -8 65 -10
22 -3 51 -7 65 -9 23 -5 80 -13 140 -21 14 -2 54 -6 90 -10 36 -3 81 -8 100
-10 134 -15 245 -19 540 -20 293 0 514 7 591 20 13 2 55 6 92 10 37 3 76 8 85
10 9 1 40 6 67 9 28 4 61 8 75 11 14 2 42 7 63 10 81 11 116 17 207 37 52 10
106 22 120 24 182 35 675 179 815 239 17 7 72 29 124 49 432 169 951 456 1321
732 47 35 96 71 109 81 13 10 29 23 35 28 6 6 43 35 81 65 39 30 72 57 75 60
3 3 23 20 45 39 153 130 436 403 565 546 113 125 286 336 356 435 21 30 47 64
56 75 57 67 272 404 377 590 53 94 234 450 236 465 1 3 8 21 17 40 171 387
303 799 389 1225 17 83 33 164 35 180 2 17 9 57 14 90 5 33 12 83 15 110 3 28
8 59 10 70 2 11 7 52 10 90 4 39 8 81 11 95 18 115 27 808 11 985 -14 163 -17
201 -22 235 -2 19 -9 76 -15 125 -6 50 -13 97 -15 105 -2 8 -7 38 -10 65 -11
75 -28 169 -49 270 -27 123 -40 180 -70 295 -45 173 -130 448 -166 535 -5 11
-30 74 -55 140 -26 66 -58 145 -71 175 -14 30 -32 73 -42 95 -33 77 -220 441
-269 525 -134 229 -317 503 -445 665 -199 253 -304 371 -523 590 -474 474
-983 840 -1570 1129 -237 117 -288 140 -470 211 -336 131 -608 213 -970 291
-5 1 -50 10 -100 19 -49 9 -99 19 -110 21 -11 3 -38 7 -60 9 -22 3 -51 7 -65
9 -14 3 -45 8 -70 11 -25 3 -56 8 -70 10 -14 2 -52 7 -85 10 -142 14 -172 17
-210 21 -49 5 -781 14 -786 10z m696 -690 c28 -2 91 -8 140 -11 50 -4 92 -9
95 -10 3 -2 30 -6 60 -10 93 -10 263 -36 305 -45 22 -5 58 -11 80 -15 22 -3
56 -10 75 -15 35 -9 161 -39 190 -45 123 -26 566 -172 695 -230 17 -7 75 -32
130 -56 140 -60 418 -203 555 -285 63 -38 119 -71 124 -73 22 -9 270 -181 371
-257 202 -152 368 -297 565 -494 107 -107 220 -224 250 -259 102 -119 186
-225 269 -336 44 -60 85 -114 89 -120 4 -5 42 -62 83 -125 377 -573 647 -1230
773 -1875 35 -182 45 -242 61 -380 3 -27 8 -59 11 -70 2 -11 6 -51 9 -90 2
-38 8 -113 12 -165 13 -181 6 -735 -11 -825 -2 -11 -7 -51 -10 -90 -9 -92 -14
-127 -37 -270 -24 -151 -28 -174 -35 -205 -3 -14 -8 -36 -10 -50 -3 -14 -12
-54 -20 -90 -9 -36 -17 -72 -19 -80 -31 -139 -118 -414 -191 -607 -211 -560
-508 -1064 -910 -1548 -111 -133 -435 -464 -558 -570 -38 -33 -74 -64 -80 -70
-21 -19 -202 -161 -276 -216 -155 -115 -400 -273 -580 -374 -101 -56 -398
-200 -496 -241 -49 -20 -102 -42 -119 -49 -16 -8 -52 -21 -80 -30 -27 -9 -63
-22 -80 -30 -67 -30 -418 -136 -527 -160 -13 -3 -50 -11 -83 -20 -71 -17 -368
-72 -440 -80 -27 -4 -61 -8 -75 -11 -14 -2 -54 -6 -90 -10 -36 -3 -73 -8 -83
-10 -123 -23 -802 -23 -992 0 -16 2 -57 7 -90 11 -69 7 -81 9 -230 30 -60 9
-128 20 -150 25 -22 5 -58 11 -80 14 -22 4 -48 9 -57 12 -9 3 -25 7 -35 9 -10
2 -49 11 -88 20 -38 9 -77 18 -85 20 -120 24 -534 162 -705 234 -238 100 -489
226 -676 338 -63 37 -118 70 -123 72 -21 9 -258 172 -351 241 -110 83 -302
239 -380 309 -83 75 -386 381 -450 455 -73 84 -261 318 -301 375 -318 452
-523 834 -692 1291 -67 179 -163 493 -187 608 -2 9 -19 96 -39 192 -37 188
-46 243 -62 375 -3 33 -8 68 -10 78 -4 22 -13 131 -23 277 -13 185 -3 742 14
810 2 8 7 47 10 85 4 39 8 81 10 95 2 14 7 45 10 70 7 49 51 303 59 335 2 11
12 54 21 95 9 41 18 82 20 90 6 28 46 175 62 230 9 30 18 60 19 65 17 75 160
450 237 621 40 87 162 332 188 374 5 8 39 67 75 130 99 172 302 469 405 595 9
11 52 63 95 115 121 146 126 152 334 360 228 229 396 372 678 578 262 191 652
408 1017 567 227 99 745 262 925 291 19 3 38 8 41 10 3 2 21 6 40 9 19 3 70
12 114 20 44 7 102 16 129 20 27 3 52 8 55 9 7 4 69 12 171 21 36 4 76 8 90
11 14 2 81 7 150 10 69 4 126 8 128 9 5 4 526 -3 577 -9z"/>
<path d="M2124 6013 l1 -1568 1243 0 c684 0 1246 4 1249 8 3 5 6 243 8 530 1
287 5 531 8 542 2 11 8 45 11 75 21 181 86 331 186 430 112 110 301 199 490
230 41 7 84 14 95 16 101 19 1142 28 1320 11 111 -10 227 -41 311 -82 171 -83
271 -268 299 -550 12 -119 14 -178 14 -702 l1 -533 1250 0 1250 0 1 73 c0 39
3 259 6 487 10 791 8 974 -11 1031 -3 8 -7 28 -10 44 -7 45 -14 74 -20 83 -3
5 -7 20 -10 35 -8 44 -83 196 -131 262 -41 57 -200 215 -217 215 -4 0 -24 12
-45 26 -83 56 -242 119 -388 153 -108 25 -139 30 -295 48 -90 10 -2863 10
-3038 0 -67 -4 -146 -9 -175 -12 -29 -3 -72 -7 -97 -9 -282 -27 -594 -122
-750 -228 -19 -13 -40 -27 -46 -31 -8 -4 -11 130 -11 486 l0 492 -1250 3
-1250 2 1 -1567z"/>
</g>
</svg>
