<?xml version="1.0" encoding="utf-8"?>
<!-- Generator: Adobe Illustrator 18.1.1, SVG Export Plug-In . SVG Version: 6.00 Build 0)  -->
<!DOCTYPE svg PUBLIC "-//W3C//DTD SVG 1.1//EN" "http://www.w3.org/Graphics/SVG/1.1/DTD/svg11.dtd">
<svg version="1.1" id="Layer_1" xmlns="http://www.w3.org/2000/svg" xmlns:xlink="http://www.w3.org/1999/xlink" x="0px" y="0px"
	 viewBox="0 0 288 288" enable-background="new 0 0 288 288" xml:space="preserve">
<g>
	<path d="M237,150.6l-0.4,31.2h-59.9v-22.2c0-6.2-0.6-11-1.9-14.1c-1.2-3.2-3.3-5.4-6.2-6.7c-2.9-1.3-7.2-2-12.8-2h-16.2
		c-8.1,0-14.2,0.9-18.3,2.8c-4.2,1.9-6.9,4.5-8.3,7.9c-1.4,3.4-2,7.8-2,13.3v20.5H51v-75.1h59.9v23.8c3.1-2.3,7.3-4.1,12.6-5.4
		c5.3-1.2,13.7-1.9,25.3-1.9h54.6C226.1,122.7,237.3,132,237,150.6z"/>
</g>
<path d="M144,288C64.6,288,0,223.4,0,144C0,64.6,64.6,0,144,0s144,64.6,144,144C288,223.4,223.4,288,144,288z M144,16.3
	C73.6,16.3,16.3,73.6,16.3,144S73.6,271.7,144,271.7S271.7,214.4,271.7,144S214.4,16.3,144,16.3z"/>
</svg>
