<?xml version="1.0" encoding="utf-8"?>
<!-- Generator: Adobe Illustrator 18.1.1, SVG Export Plug-In . SVG Version: 6.00 Build 0)  -->
<!DOCTYPE svg PUBLIC "-//W3C//DTD SVG 1.1//EN" "http://www.w3.org/Graphics/SVG/1.1/DTD/svg11.dtd">
<svg version="1.1" id="Layer_1" xmlns="http://www.w3.org/2000/svg" xmlns:xlink="http://www.w3.org/1999/xlink" x="0px" y="0px"
	 viewBox="0 0 720 91.1" enable-background="new 0 0 720 91.1" xml:space="preserve">
<g>
	<g>
		<path d="M88.7,47.2l-0.1,10.9H67.7v-7.7c0-2.2-0.2-3.8-0.6-4.9c-0.4-1.1-1.2-1.9-2.2-2.3c-1-0.5-2.5-0.7-4.4-0.7h-5.6
			c-2.8,0-4.9,0.3-6.4,1c-1.5,0.7-2.4,1.6-2.9,2.8c-0.5,1.2-0.7,2.7-0.7,4.6v7.1H23.9V31.8h20.9V40c1.1-0.8,2.5-1.4,4.4-1.9
			c1.8-0.4,4.8-0.6,8.8-0.6h19C84.9,37.5,88.8,40.8,88.7,47.2z"/>
		<path d="M96.8,48.3c0-6.8,3.8-10.3,11.3-10.5c6.2-0.2,12.9-0.3,20.2-0.3c5.2,0,13.3,0.1,24.5,0.3c3.5,0,6.1,1,7.9,2.9
			c1.8,1.9,2.7,4.5,2.7,7.9c0,3.3-0.9,5.9-2.7,7.7c-1.8,1.8-4.4,2.7-7.9,2.8c-11.1,0.2-19.3,0.3-24.5,0.3c-7.3,0-14.1-0.1-20.2-0.3
			C100.6,58.9,96.8,55.3,96.8,48.3z M135,53.9c2.5,0,4.3-0.5,5.4-1.5c1.1-1,1.7-2.3,1.7-4c0-3.7-2.4-5.5-7.1-5.5h-9.7
			c-4.7,0-7.1,1.8-7.1,5.4c0,1.7,0.6,3.1,1.7,4.1c1.1,1,2.9,1.5,5.4,1.5H135z"/>
		<path d="M236.3,47.2l-0.1,10.9h-20.9v-7.7c0-2.2-0.2-3.8-0.6-4.9c-0.4-1.1-1.2-1.9-2.2-2.3c-1-0.5-2.5-0.7-4.4-0.7h-8.4
			c-4.8,0-7.3,2.6-7.3,7.7v7.8h-20.9V38.1h19.5l0.7,2.4c1-0.7,1.8-1.2,2.6-1.6c0.8-0.4,2.1-0.7,3.9-1c1.8-0.3,4.2-0.4,7.3-0.4h19
			C232.5,37.5,236.4,40.8,236.3,47.2z"/>
		<path d="M267.1,53.7c2.3,0.7,5.1,1.1,8.4,1.1c2.1,0,4.2-0.2,6.1-0.5c1.9-0.3,3.5-0.8,4.9-1.5l19,0.1c-0.9,1.5-2.2,2.8-3.9,3.8
			c-1.7,1.1-3.9,1.6-6.7,1.7c-7,0.2-13.7,0.3-20,0.3c-6.3,0-12.9-0.1-20-0.3c-3.7-0.1-6.5-1.1-8.3-3c-1.8-1.9-2.7-4.5-2.7-7.7
			c0-3.1,0.9-5.5,2.8-7.1c1.9-1.6,4.8-2.5,8.9-2.6c6.9-0.2,13.4-0.3,19.4-0.3c6,0,12.5,0.1,19.4,0.3c4.1,0.1,7,1,8.9,2.7
			c1.9,1.7,2.8,4.1,2.8,7.3c0,0.9,0,1.7-0.1,2.4h-42.2C263.6,51.8,264.8,52.9,267.1,53.7z M286.2,46.8c-0.4-2.7-2.4-4.2-5.8-4.6
			c-1.4-0.1-3.2-0.2-5.5-0.2c-2.3,0-4.1,0.1-5.6,0.2c-3.5,0.4-5.4,1.9-5.8,4.6H286.2z"/>
		<path d="M369.4,38.3l-14,20.4c-2,2.9-3.8,5-5.3,6.2c-1.5,1.2-2.9,2-4.2,2.2c-1.2,0.2-3.1,0.4-5.7,0.4h-19.4l0.1-3.5h8.3
			c1.6,0,2.9-0.1,3.9-0.4c1-0.3,1.9-0.8,2.8-1.6c0.9-0.8,1.9-1.9,3-3.5l1.8-2.4c-1,0.8-1.7,1.3-2.3,1.5c-0.6,0.2-1.3,0.3-2.1,0.3
			h-12.1l-12.9-19.6l21.1-0.1l9.4,14.5h0.9l9.3-14.5L369.4,38.3z"/>
		<path d="M473.3,48.3l-0.1,10.1h-20.9v-6.9c0-2.2-0.2-3.8-0.6-4.9c-0.4-1.1-1.2-1.9-2.2-2.3c-1-0.5-2.5-0.7-4.5-0.7h-3.6
			c-2.6,0-4.5,0.6-5.5,1.8c-1,1.2-1.6,2.9-1.7,5.2l-0.1,7.6h-20.9v-7c0-2.2-0.2-3.8-0.6-4.9c-0.4-1.1-1.2-1.9-2.2-2.3
			c-1-0.5-2.5-0.7-4.4-0.7h-2.3c-2.8,0-4.7,0.7-5.7,2c-1,1.3-1.5,3.2-1.5,5.7v7.2h-20.9V38.1H395l0.8,2.8c1.7-1.8,4.7-2.7,9-2.7
			h17.7c5.2,0,8.6,1.4,10.3,4.1c0.7-1.1,1.8-2,3.3-2.6c1.4-0.7,3.6-1,6.5-1h19C469.5,38.5,473.4,41.8,473.3,48.3z"/>
		<path d="M481.1,48.3c0-6.8,3.8-10.3,11.3-10.5c6.2-0.2,12.9-0.3,20.2-0.3c5.2,0,13.3,0.1,24.5,0.3c3.5,0,6.1,1,7.9,2.9
			c1.8,1.9,2.7,4.5,2.7,7.9c0,3.3-0.9,5.9-2.7,7.7c-1.8,1.8-4.4,2.7-7.9,2.8c-11.1,0.2-19.3,0.3-24.5,0.3c-7.3,0-14.1-0.1-20.2-0.3
			C484.8,58.9,481.1,55.3,481.1,48.3z M519.3,53.9c2.5,0,4.3-0.5,5.4-1.5c1.1-1,1.7-2.3,1.7-4c0-3.7-2.4-5.5-7.1-5.5h-9.7
			c-4.7,0-7.1,1.8-7.1,5.4c0,1.7,0.6,3.1,1.7,4.1c1.1,1,2.9,1.5,5.4,1.5H519.3z"/>
		<path d="M555.1,48.3c0-6.8,3.8-10.3,11.3-10.5c6.2-0.2,12.9-0.3,20.2-0.3c5.2,0,13.3,0.1,24.5,0.3c3.5,0,6.1,1,7.9,2.9
			c1.8,1.9,2.7,4.5,2.7,7.9c0,3.3-0.9,5.9-2.7,7.7c-1.8,1.8-4.4,2.7-7.9,2.8c-11.1,0.2-19.3,0.3-24.5,0.3c-7.3,0-14.1-0.1-20.2-0.3
			C558.9,58.9,555.1,55.3,555.1,48.3z M593.3,53.9c2.5,0,4.3-0.5,5.4-1.5c1.1-1,1.7-2.3,1.7-4c0-3.7-2.4-5.5-7.1-5.5h-9.7
			c-4.7,0-7.1,1.8-7.1,5.4c0,1.7,0.6,3.1,1.7,4.1c1.1,1,2.9,1.5,5.4,1.5H593.3z"/>
		<path d="M694.6,47.2l-0.1,10.9h-20.9v-7.7c0-2.2-0.2-3.8-0.6-4.9c-0.4-1.1-1.2-1.9-2.2-2.3c-1-0.5-2.5-0.7-4.5-0.7H658
			c-4.8,0-7.3,2.6-7.3,7.7v7.8h-20.9V38.1h19.5l0.7,2.4c1-0.7,1.8-1.2,2.7-1.6c0.8-0.4,2.1-0.7,3.9-1c1.8-0.3,4.2-0.4,7.3-0.4h19
			C690.8,37.5,694.7,40.8,694.6,47.2z"/>
	</g>
	<path d="M705.3,0H14.7H0v14.7v61.7v14.7h14.7h690.6H720V76.4V14.7V0H705.3z M14.7,80.6c-2.3,0-4.2-1.9-4.2-4.2V14.7
		c0-2.3,1.9-4.2,4.2-4.2h690.6c2.3,0,4.2,1.9,4.2,4.2v61.7c0,2.3-1.9,4.2-4.2,4.2H14.7z"/>
</g>
</svg>
